<?xml version="1.0" standalone="no"?>
<!DOCTYPE svg PUBLIC "-//W3C//DTD SVG 1.1//EN" "http://www.w3.org/Graphics/SVG/1.1/DTD/svg11.dtd" >
<svg xmlns="http://www.w3.org/2000/svg">
<metadata>Generated by IcoMoon</metadata>
<defs>
<font id="icomoon" horiz-adv-x="1024">
<font-face units-per-em="1024" ascent="960" descent="-64" />
<missing-glyph horiz-adv-x="1024" />
<glyph unicode="&#x20;" horiz-adv-x="512" d="" />
<glyph unicode="&#xe900;" glyph-name="add_lg" d="M0 345.6v204.8h409.6v409.6h204.8v-409.6h409.6v-204.8h-409.6v-409.6h-204.8v409.6h-409.6z" />
<glyph unicode="&#xe901;" glyph-name="add_sm" d="M584.185 520.156v-10.845l440.048 3.819-2.041-132.184-439.115-3.79-4.023-439.349-132.271-2.070 3.994 440.194h-10.845v10.845l-440.048-3.819 1.924 132.096 439.115 3.79 3.79 439.115 132.271 2.070-3.761-439.961z" />
<glyph unicode="&#xe902;" glyph-name="Calendar" d="M64 960c-35.346 0-64-28.654-64-64v-896c0-35.346 28.654-64 64-64h896c35.346 0 64 28.654 64 64v896c0 35.346-28.654 64-64 64h-896zM128 960h256v-192h-256v192zM192 960h128v-128h-128v128zM640 960h256v-192h-256v192zM704 960h128v-128h-128v128zM128 640h768v-576h-768v576zM256 512h128v-128h-128v128zM448 512h128v-128h-128v128zM640 512h128v-128h-128v128zM256 320h128v-128h-128v128zM448 320h128v-128h-128v128zM640 320h128v-128h-128v128z" />
<glyph unicode="&#xe903;" glyph-name="chev_down" d="M0 652.544l512-530.362 512 530.385-115.433 121.251-396.567-410.717-396.474 410.717z" />
<glyph unicode="&#xe904;" glyph-name="close" d="M640 448l-9.702-9.523 393.702-386.944-119.117-115.533-392.883 386.176-392.883-386.176-119.117 115.533 393.702 386.944-9.702 9.523 9.702 9.523-393.702 386.97 119.117 115.507 392.883-386.176 392.883 386.176 119.117-115.507-393.702-386.97z" />
<glyph unicode="&#xe905;" glyph-name="commission" d="M1024 550.4l-77.824 78.507v109.227l-101.717 44.373-42.325 102.4h-110.251l-77.824 75.093-102.059-40.96-101.717 40.96-78.165-75.093h-110.251l-41.984-102.4-102.059-44.373v-109.227l-77.824-78.507 41.984-102.4-41.984-98.987 77.824-78.507v-112.64l102.059-40.96 41.984-102.4h110.251l78.165-78.507 101.717 44.373 102.059-44.373 77.824 78.507h110.251l42.325 102.4 101.717 40.96v112.64l77.824 78.507-41.984 98.987zM546.133 168.107v-61.44c0-18.851-15.282-34.133-34.133-34.133s-34.133 15.282-34.133 34.133v61.44c-78.124 17.034-135.869 85.306-136.533 167.18 0 18.924 15.282 34.206 34.133 34.206s34.133-15.282 34.133-34.133c-0.002-0.234-0.003-0.511-0.003-0.788 0-56.12 45.495-101.615 101.615-101.615 0.277 0 0.554 0.001 0.831 0.003 60.374 0 102.358 37.546 102.358 92.16 0 44.373-36.864 75.093-109.909 92.16-134.827 30.72-163.157 102.4-163.157 157.013 0.473 79.624 59.177 145.396 135.654 156.905l0.879 58.135c0 18.851 15.282 34.133 34.133 34.133s34.133-15.282 34.133-34.133v-58.027c69.476-14.437 122.825-69.625 134.349-138.953 0.608-3.125 0.879-5.573 0.879-8.085 0-18.908-15.328-34.236-34.236-34.236-17.799 0-32.425 13.583-34.080 30.948-8.931 48.653-50.675 85-100.995 85.471-60.125 0-102.45-37.546-102.45-92.16 0-17.067 0-68.267 109.909-92.16 141.995-30.72 163.157-112.64 163.157-157.013 0.004-0.398 0.006-0.869 0.006-1.341 0-79.497-59.080-145.195-135.728-155.583z" />
<glyph unicode="&#xe906;" glyph-name="communicate" d="M992 864c-17.414-0.63-31.37-14.586-31.998-31.941l-0.002-41.659-896-268.8v22.4c0 17.673-14.327 32-32 32s-32-14.327-32-32v-192c0-17.673 14.327-32 32-32s32 14.327 32 32v22.4l272-83.2v-51.2c0.47-97.012 78.987-175.53 175.955-176 0.468-0.004 0.968-0.006 1.469-0.006 78.601 0 145.044 52.055 166.735 123.572l279.842-81.966v-41.6c0-17.673 14.327-32 32-32s32 14.327 32 32v768c-0.63 17.414-14.586 31.37-31.941 31.998zM512 128c-61.688 0.414-111.586 50.311-112 111.96v32.040l219.2-64c-13.539-46.558-55.816-80.008-105.905-80.008-0.455 0-0.91 0.003-1.364 0.008z" />
<glyph unicode="&#xe907;" glyph-name="contacts" horiz-adv-x="928" d="M896 800h-32v160h-688c-61.545-0.766-111.234-50.455-111.999-111.927l-0.001-176.073h-32c-17.464-0.509-31.491-14.535-31.999-31.952-0.013-0.373-0.020-0.755-0.020-1.139 0-17.081 13.847-30.928 30.928-30.928 0.384 0 0.766 0.007 1.146 0.021l31.945-0.002v-96h-32c-17.464-0.509-31.491-14.535-31.999-31.952-0.013-0.373-0.020-0.755-0.020-1.139 0-17.081 13.847-30.928 30.928-30.928 0.384 0 0.766 0.007 1.146 0.021l31.945-0.002v-96h-32c-17.464-0.509-31.491-14.535-31.999-31.952-0.013-0.373-0.020-0.755-0.020-1.139 0-17.081 13.847-30.928 30.928-30.928 0.384 0 0.766 0.007 1.146 0.021l31.945-0.002v-96h-32c-17.464-0.509-31.491-14.535-31.999-31.952-0.013-0.373-0.020-0.755-0.020-1.139 0-17.081 13.847-30.928 30.928-30.928 0.384 0 0.766 0.007 1.146 0.021l31.945-0.002v-80c-0.005-0.388-0.008-0.845-0.008-1.304 0-61.14 49.564-110.704 110.704-110.704 0.458 0 0.916 0.003 1.373 0.008l751.93-0.001v832c-0.63 17.414-14.586 31.37-31.941 31.998zM767.36 240c-15.084-46.268-57.513-79.252-107.752-79.999-72.088-0.001-160.408 54.399-237.528 134.399-77.44 76.8-134.080 163.2-134.080 236.8 1.543 50.398 34.28 92.763 79.488 108.547 23.232 3.453 32.832-15.747 40.192-25.347 7.040-9.6 48-73.6 54.4-83.2 3.736-5.739 5.958-12.761 5.958-20.302 0-12.756-6.357-24.027-16.076-30.817-23.482-19.281-46.202-25.681 41.798-115.281 88-86.4 95.040-64 113.92-41.6 7.213 9.536 18.537 15.635 31.286 15.635 7.742 0 14.958-2.249 21.031-6.129 9.763-6.306 72.803-47.906 83.043-54.306 14.405-5.491 24.453-19.191 24.453-35.238 0-1.113-0.048-2.215-0.143-3.303zM800 800h-623.68c-0.448-0.015-0.975-0.024-1.503-0.024-25.865 0-46.832 20.967-46.832 46.832 0 0.419 0.006 0.837 0.016 1.254 0.582 26.322 21.907 47.536 48.28 47.938h623.718v-96z" />
<glyph unicode="&#xe908;" glyph-name="customise" d="M177.059 28.663c192.14-16.216 123.252 191.618 301.056 193.629l76.893-65.424c19.177-236.283-264.378-288.954-377.949-128.205zM765.952 332.139c59.764 95.493 245.015 415.781 245.015 415.781 2.262 3.89 3.598 8.561 3.598 13.545 0 15.074-12.22 27.294-27.294 27.294-6.571 0-12.601-2.322-17.311-6.191s-275.129-243.655-356.304-320.902c-64.233-61.068-64.419-88.958-85.271-189.663l70.377-59.709c93.277 38.986 120.087 44.274 167.191 119.808zM263.633 166.828c27.741 48.407 73.169 126.976 186.182 139.134 18.060 88.995 25.321 140.735 106.682 218.019 57.53 54.663 206.662 188.044 293.981 265.663-41.891 94.152-173.335 171.567-342.575 170.17-276.371-5.046-498.477-230.274-498.477-507.378 0-2.934 0.025-5.863 0.075-8.785 0.648-123.741 45.118-237.409 118.716-326.020 67.088-17.493 98.925-14.068 135.416 49.234zM554.636 842.184c0.67 0.019 1.459 0.030 2.25 0.030 47.104 0 85.29-38.186 85.29-85.29s-38.186-85.29-85.29-85.29c-46.865 0-84.901 37.798-85.287 84.572-0.004 0.342-0.006 0.702-0.006 1.062 0 46.236 36.96 83.839 82.947 84.877zM303.476 756.838c0.671 0.019 1.46 0.030 2.251 0.030 47.104 0 85.29-38.186 85.29-85.29s-38.186-85.29-85.29-85.29c-46.924 0-84.997 37.893-85.288 84.748-0.008 0.468-0.013 0.987-0.013 1.507 0 46.111 37.037 83.572 82.986 84.256zM219.695 501.025c0.676 0.019 1.471 0.030 2.269 0.030 47.115 0 85.309-38.194 85.309-85.309s-38.194-85.309-85.309-85.309c-46.888 0-84.941 37.827-85.306 84.629-0.009 0.486-0.014 1.019-0.014 1.553 0 46.134 37.025 83.62 82.981 84.366zM639.721 137.151c0.113-2.972 0.178-6.463 0.178-9.969 0-71.388-26.761-136.526-70.798-185.93l-1.805-1.584c220.067 25.209 379.625 183.557 262.516 336.449-57.53-87.357-106.124-104.206-190.092-139.041z" />
<glyph unicode="&#xe909;" glyph-name="dashboard" horiz-adv-x="1140" d="M1121.488 338.544c-11.321-11.468-27.039-18.571-44.416-18.571s-33.095 7.103-44.41 18.564l-82.838 83.687v-422.224c0.001-0.1 0.001-0.218 0.001-0.337 0-35.054-28.331-63.491-63.345-63.663h-633.616c-35.021 0.172-63.345 28.602-63.345 63.647 0 0.124 0 0.248 0.001 0.372v422.189l-82.832-83.664c-11.322-11.478-27.047-18.587-44.432-18.587s-33.11 7.11-44.425 18.58c-11.357 11.549-18.365 27.391-18.365 44.871s7.007 33.323 18.366 44.873l171.735 173.319v6.4h6.192l324.112 327.36c11.676 15.008 29.74 24.572 50.037 24.572 17.479 0 33.301-7.092 44.746-18.555 1.648-1.808 3.224-3.77 4.674-5.827l324.287-327.55h6.208v-6.4l171.664-173.408c11.327-11.537 18.318-27.364 18.318-44.824s-6.992-33.287-18.328-44.834zM823.104 320v230.224l-253.408 256-253.424-256v-486.224h126.704v192c-0.001 0.1-0.001 0.218-0.001 0.337 0 35.054 28.331 63.491 63.345 63.663h126.72c35.030-0.172 63.361-28.609 63.361-63.663 0-0.118 0-0.237-0.001-0.355v-191.982h126.704v256zM569.696 448c-0.195-0.002-0.425-0.003-0.656-0.003-35.346 0-64 28.654-64 64s28.654 64 64 64c35.345 0 63.998-28.652 64-63.996 0.001-0.1 0.001-0.219 0.001-0.337 0-35.048-28.322-63.482-63.328-63.663z" />
<glyph unicode="&#xe90a;" glyph-name="dbl_arrow" d="M114.347-29.867l500.053 477.867-500.053 477.867-114.347-107.793 387.072-370.074-387.072-370.039zM523.947-29.867l500.053 477.867-500.053 477.867-114.347-107.793 387.072-370.074-387.072-370.039z" />
<glyph unicode="&#xe90b;" glyph-name="delete" d="M960 640v-640c0-35.346-28.654-64-64-64h-768c-35.346 0-64 28.654-64 64v640h-64v64c0 35.346 28.654 64 64 64h256v128c0 35.346 28.654 64 64 64h256c35.346 0 64-28.654 64-64v-128h256c35.346 0 64-28.654 64-64v-64h-64zM576 832h-128v-64h128v64zM832 640h-640v-576h640v576zM448 192h-128v320h128v-320zM704 192h-128v320h128v-320z" />
<glyph unicode="&#xe90c;" glyph-name="edit" d="M960-64h-896c-35.346 0-64 28.654-64 64v896c0 35.346 28.654 64 64 64h640l-128-128h-448v-768h768v448l128 128v-640c0-35.346-28.654-64-64-64zM256 192v192l576 576h64l128-128v-64l-576-576h-192zM544 416l352 352-64 64-352-352zM384 384l-64-64v-64h64l64 64z" />
<glyph unicode="&#xe90d;" glyph-name="feedback" d="M1024 255.982v-63.982c0-0.016 0-0.034 0-0.053 0-35.305-28.61-63.927-63.91-63.947h-128.002v-192l-288.132 192h-479.868c-0.031 0-0.069 0-0.106 0-35.336 0-63.982 28.646-63.982 63.982 0 0.006 0 0.012 0 0.019v703.999c0 0.005 0 0.012 0 0.018 0 35.336 28.646 63.982 63.982 63.982 0.037 0 0.075 0 0.112 0h895.994c35.302-0.020 63.912-28.642 63.912-63.947 0-0.019 0-0.037 0-0.056v-639.98zM896 832h-768v-576h415.956l160.132-96.009v96.009h191.912v576zM320.088 384h-64.088v128h512v-128h-447.912zM256 704h512v-128h-512v128z" />
<glyph unicode="&#xe90e;" glyph-name="info" d="M512 960c-282.77 0-512-229.23-512-512s229.23-512 512-512c282.77 0 512 229.23 512 512s-229.23 512-512 512zM512.222 857.6c56.554 0 102.4-45.846 102.4-102.4s-45.846-102.4-102.4-102.4c-56.554 0-102.4 45.846-102.4 102.4 0.078 56.523 45.877 102.322 102.392 102.4zM682.667 72.533h-307.2v86.204c27.87 10.854 68.267 17.971 68.267 50.33v273.067c0 32.427-6.263 29.321-34.133 40.175v60.518l204.8 1.707v-375.467c0-32.427 31.915-39.663 59.733-50.381z" />
<glyph unicode="&#xe90f;" glyph-name="insurancetools" d="M411.648 656.213c9.499 0.012 18.081 3.929 24.228 10.233l165.212 163.847c4.686 6.202 12.027 10.183 20.3 10.24h0.18c8.282-0.057 15.623-4.038 20.263-10.176l21.551-20.544-102.4-102.4 90.624-92.16 148.651 150.187h0.171c11.64 11.862 18.825 28.132 18.825 46.080s-7.185 34.218-18.835 46.090c-11.435 11.079-27.058 17.914-44.278 17.914s-32.843-6.835-44.305-17.941l-0.325 0.016-21.333 20.48c-16.642 18.877-40.878 30.723-67.881 30.723-0.256 0-0.511-0.001-0.766-0.003h-0.132c-0.148 0.001-0.322 0.001-0.497 0.001-27.074 0-51.382-11.841-68.028-30.626l-165.288-163.935c-6.034-6.152-9.759-14.588-9.759-23.895 0-18.742 15.105-33.956 33.806-34.132zM192 338.773l-55.467-146.773 146.091 54.613 320.683 320.853-90.624 92.16zM698.709 567.467c-8.416-7.167-18.273-12.957-29.035-16.857-4.579-12.075-10.522-22.313-18.156-31.031l-320.596-320.752c-6.641-6.026-14.625-10.705-23.439-13.528l-146.715-58.152c-5.994-2.252-12.921-3.555-20.152-3.555-1.436 0-2.861 0.051-4.272 0.153-37.439 0.334-67.81 30.917-67.81 68.594 0 8.454 1.529 16.55 4.325 24.028l55.311 146.3c3.417 9.432 8.79 17.442 15.666 23.861l180.6 180.939h-324.437v-580.267h1024v580.267h-325.291zM887.467 123.733h-442.027c-18.851 0-34.133 15.282-34.133 34.133s15.282 34.133 34.133 34.133h442.027c18.851 0 34.133-15.282 34.133-34.133s-15.282-34.133-34.133-34.133zM887.467 260.267h-271.189c-18.851 0-34.133 15.282-34.133 34.133s15.282 34.133 34.133 34.133h271.189c18.851 0 34.133-15.282 34.133-34.133s-15.282-34.133-34.133-34.133z" />
<glyph unicode="&#xe910;" glyph-name="launch" horiz-adv-x="1019" d="M343.277 192.75l-87.633 88.018 32.45 92.792 147.573-148.21zM313.39 684.538c-75.537 0.503-170.357-40.625-242.745-113.314-27.629-27.647-51.163-59.391-69.614-94.24 64.303 47.45 133.86 62.997 215.428 17.011 27.642 72.923 60.266 135.738 99.124 194.042zM745.355 251.317c-54.488-36.256-116.958-69.157-182.761-95.503 38.79-84.353 23.293-154.261-26.076-219.831 36.84 19.594 68.452 43.239 95.948 70.97 72.566 72.884 113.542 168.407 112.889 244.363zM1016.88 958.241c-413.018 28.814-645.711-278.092-727.982-522.68l208.653-209.641c251.958 90.682 550.807 317.176 519.329 732.321zM580.376 518.888c-7.989 8.036-12.928 19.113-12.928 31.344s4.938 23.308 12.93 31.346c7.971 8.016 19.010 12.979 31.208 12.979s23.237-4.963 31.208-12.979c7.983-8.042 12.916-19.118 12.916-31.346s-4.933-23.304-12.917-31.347c-7.97-8.016-19.009-12.978-31.207-12.978s-23.237 4.963-31.208 12.979zM705.216 644.281c-15.972 16.079-25.843 38.235-25.843 62.696s9.872 46.617 25.848 62.701c15.946 16.029 38.026 25.952 62.424 25.952s46.478-9.923 62.425-25.953c15.972-16.085 25.84-38.24 25.84-62.7s-9.869-46.616-25.842-62.702c-15.942-16.009-38.009-25.918-62.39-25.918s-46.448 9.909-62.392 25.92z" />
<glyph unicode="&#xe911;" glyph-name="list" d="M379.871 708.129h627.613v165.161h-627.613v-165.161zM379.871 14.452h627.613v165.161h-627.613v-165.161zM379.871 344.774h627.613v165.161h-627.613v-165.161zM123.871 910.22c-0.147 0.001-0.321 0.001-0.495 0.001-68.686 0-124.366-55.681-124.366-124.366s55.681-124.366 124.366-124.366c68.685 0 124.366 55.68 124.366 124.365 0 0.069 0 0.15 0 0.232 0 68.465-55.427 123.985-123.857 124.135zM123.871 226.254c-0.147 0.001-0.321 0.001-0.495 0.001-68.686 0-124.366-55.681-124.366-124.366s55.681-124.366 124.366-124.366c68.685 0 124.366 55.68 124.366 124.365 0 0.069 0 0.15 0 0.232 0 68.465-55.427 123.985-123.857 124.135zM123.871 568.237c-0.147 0.001-0.321 0.001-0.495 0.001-68.686 0-124.366-55.681-124.366-124.366s55.681-124.366 124.366-124.366c68.685 0 124.366 55.68 124.366 124.365 0 0.069 0 0.15 0 0.232 0 68.465-55.427 123.985-123.857 124.135z" />
<glyph unicode="&#xe912;" glyph-name="loantools" d="M341.543 960c-0.033 0-0.072 0-0.11 0-188.516 0-341.339-152.822-341.339-341.339s152.822-341.339 341.339-341.339c188.516 0 341.339 152.822 341.339 341.339-0.295 188.358-152.878 340.98-341.194 341.339zM375.729 430.939v-17.061c0-18.88-15.306-34.186-34.186-34.186s-34.186 15.306-34.186 34.186v17.061c-49.453 16.485-84.593 62.077-85.228 115.968-0.001 18.912 15.27 34.182 34.106 34.182s34.107-15.27 34.107-34.107c0.436-28.1 23.1-50.764 51.159-51.2 24.932-0.001 51.556 13.658 51.556 44.378 0 6.821 0 30.72-59.077 44.379h-0.315c-96.886 23.899-111.537 78.501-111.537 112.64-0.002 0.261-0.004 0.569-0.004 0.877 0 51.43 36.21 94.403 84.527 104.814l0.705 20.607c0 18.88 15.306 34.186 34.186 34.186s34.186-15.306 34.186-34.186v-20.48c42.856-12.807 75.162-47.843 83.841-91.397 0.561-2.816 0.81-5.175 0.81-7.592 0-19.040-15.435-34.475-34.475-34.475-16.623 0-30.498 11.765-33.753 27.422-4.327 24.929-25.147 43.626-50.509 44.599-24.675 0.003-51.299-13.656-51.299-44.376 0-10.24 0-30.72 59.077-44.363h0.315c96.886-23.899 111.537-81.92 111.537-112.64 0.004-0.362 0.007-0.79 0.007-1.218 0-52.269-36.138-96.098-84.792-107.865zM750.986 611.84c-2.243-110.565-47.278-210.194-119.159-283.362 1.055 0.156 2.212 0.21 3.381 0.21 5.775 0 11.243-1.316 16.121-3.664 11.070-6.587 24.299-11.384 38.41-13.474l1.224-0.072c96.571-23.899 111.222-81.92 111.222-112.64 0.006-0.446 0.010-0.973 0.010-1.5 0-52.102-35.999-95.797-84.482-107.566l-0.757-17.217c0-18.88-15.306-34.186-34.186-34.186s-34.186 15.306-34.186 34.186v17.046c-49.458 16.486-84.6 62.087-85.228 115.984-0.001 18.911 15.27 34.182 34.106 34.182s34.107-15.27 34.107-34.107c0.325-28.145 23.055-50.875 51.169-51.2 24.607 0 51.231 13.658 51.231 44.378 0 6.821 0 30.72-58.762 44.379h-0.315c-22.344 5.702-41.959 13.893-59.996 24.483-8.883 5.183-15.476 15.79-15.476 27.936 0 1.985 0.176 3.929 0.513 5.817-67.291-57.501-155.201-92.359-251.253-92.359-0.128 0-0.257 0-0.385 0 32.917-156.865 170.107-272.969 334.415-272.969 188.499 0 341.307 152.808 341.307 341.307 0 164.331-116.137 301.537-270.812 334.018zM772.569 328.539h-5.829c-0.407-0.018-0.885-0.029-1.366-0.029-16.111 0-29.479 11.746-32.007 27.142-2.951 12.074-8.425 22.408-15.858 31.001-6.737 6.065-11.002 14.936-11.002 24.803 0 8.858 3.437 16.913 9.050 22.904 6.14 6.303 14.734 10.224 24.244 10.224s18.104-3.921 24.254-10.235c19.051-17.447 32.207-41.040 36.316-67.621 0.307-2.095 0.435-3.764 0.435-5.463 0-16.561-12.169-30.28-28.053-32.703z" />
<glyph unicode="&#xe913;" glyph-name="merge" d="M99.097 613.161v-330.323h165.161v-99.097h-165.161c-54.73 0-99.097 44.367-99.097 99.097v330.323c0 54.73 44.367 99.097 99.097 99.097h165.161v-99.097h-165.161zM924.903 117.677h-462.452c-54.73 0-99.097 44.367-99.097 99.097v462.452c0 54.73 44.367 99.097 99.097 99.097h462.452c54.73 0 99.097-44.367 99.097-99.097v-462.452c0-54.73-44.367-99.097-99.097-99.097zM924.903 679.226h-462.452v-462.452h462.452v462.452z" />
<glyph unicode="&#xe914;" glyph-name="new" horiz-adv-x="1025" d="M898.266 787.095l-104.918 28.622-53.718 93.033-106.765-15.108-86.285 66.409-94.007-54.205-105.086 28.454-66.476-84.908-107.1-15.276-27.698-105.136-93.839-54.205 14.269-108.040-66.476-84.908 53.55-93.201-27.698-105.136 86.452-66.426 14.269-108.024 104.918-28.538 53.886-92.865 106.765 15.108 86.452-66.409 93.839 54.205 104.918-28.538 66.812 85.076 106.765 15.108 27.866 105.304 94.007 54.205-14.437 108.040 66.476 84.908-53.718 93.033 27.698 105.136-86.117 66.594zM434.445 247.934l-47.003-27.178-131.273 67.634 61.944-107.57-58.083-33.574-134.295 232.616 44.821 25.835 17.458-9.334 116.165-56.958-62.111 107.57 58.083 33.574zM508.139 523.088l-87.124-50.361 16.787-29.075 58.083 33.574 33.574-58.15-58.083-33.574 16.787-29.075 87.124 50.361 33.574-58.167-145.374-83.934-134.295 232.599 145.374 83.934zM868.386 498.361l-50.529-29.209-100.050 89.508 24.845-132.969-49.186-28.353-190.531 188.466 45.996 49.84 106.093-105.405-19.137 105.187 58.418 33.742 79.402-70.505-36.763 145.509 65.805 14.772z" />
<glyph unicode="&#xe915;" glyph-name="new_email" d="M512 417.579l-511.36 414.421h1022.72zM280.533 495.317l-280.533 227.371v-533.333zM743.467 495.317l280.533-306.005v533.333zM677.12 441.515l-165.12-133.76-165.12 133.76-346.027-377.515h1022.293z" />
<glyph unicode="&#xe916;" glyph-name="new_mail" d="M0 503.717h128.514v-365.185h-74.366zM472.69 301.162h128.514v-365.185h-74.366zM796.416 640.643h-344.641v136.95h227.747v182.685h-319.078v-319.542h-182.197v-593.419h845.916v365.092c-0.898 125.517-102.27 227.059-227.635 228.234z" />
<glyph unicode="&#xe917;" glyph-name="notes" d="M921.6 407.040v552.96h-819.2v-1024s90.795 4.71 338.603 4.71c198.315-1.058 142.336 343.245 142.336 343.45 123.221-30.515 338.261-17.067 338.261 122.88zM750.933 686.933h-477.867v102.4h477.867v-102.4zM750.933 550.4h-477.867v102.4h477.867v-102.4zM750.933 413.867h-477.867v102.4h477.867v-102.4zM672.085 193.092c18.188-3.246 39.125-5.102 60.495-5.102 69.94 0 135.237 19.876 190.552 54.289-62.631-82.809-215.89-234.668-306.002-282.727 47.445 47.855 64.171 173.431 54.955 233.54z" />
<glyph unicode="&#xe918;" glyph-name="notification" d="M512 832c141.315-0.173 255.827-114.685 256-255.983v-256.017h-512v256c0.173 141.315 114.685 255.827 255.983 256zM512 960c-212.077 0-384-171.923-384-384v-384h768v384c0 212.077-171.923 384-384 384zM960 192h-896c-35.346 0-64 28.654-64 64s28.654 64 64 64h896c35.346 0 64-28.654 64-64s-28.654-64-64-64zM512-64c-70.692 0-128 57.308-128 128v64h256v-64c0-70.692-57.308-128-128-128z" />
<glyph unicode="&#xe919;" glyph-name="print" d="M597.333 106.667h-256v42.667h256v-42.667zM1024 746.667v-554.667h-170.667v-256h-682.667v256h-170.667v554.667h170.667v213.333h682.667v-213.333h170.667zM768 320h-512v-298.667h512v298.667zM768 874.667h-512v-128h512v128zM938.667 640c0 11.782-9.551 21.333-21.333 21.333s-21.333-9.551-21.333-21.333c0-11.739 9.482-21.264 21.205-21.333 0.043 0 0.086 0 0.128 0 11.782 0 21.333 9.551 21.333 21.333 0 0 0 0 0 0zM682.667 234.667h-341.333v-42.667h341.333v42.667z" />
<glyph unicode="&#xe91a;" glyph-name="recently_viewed" horiz-adv-x="935" d="M934.807 447.903c-0.097-45.633-6.687-89.689-18.895-131.345l-88.439 3.32c14.162 38.384 22.356 82.715 22.356 128.96 0 211.342-171.117 382.717-382.36 383.136-0.055 0-0.072 0-0.089 0-73.181 0-141.487-20.874-199.289-56.993l80.489-113.701h-297.17l91.434 298.718 78.614-114.075c69.702 44.673 154.718 71.259 245.935 71.39 258.289-0.596 467.415-210.089 467.415-468.426 0-0.346 0-0.693-0.001-1.039zM664.826 119.659c-56.16-35.034-124.352-55.808-197.397-55.812-211.305 0.487-382.412 171.894-382.412 383.265 0 46.196 8.173 90.484 23.152 131.495l-90.076-2.663c-11.462-38.597-18.058-82.944-18.058-128.832 0-258.377 209.11-467.913 467.325-468.603 91.157 0.117 176.036 26.607 247.508 72.241l76.869-114.911 91.467 298.234h-297.186zM467.428 575.927c-0.187 0.001-0.408 0.002-0.629 0.002-70.706 0-128.024-57.318-128.024-128.024s57.318-128.024 128.024-128.024c70.705 0 128.023 57.317 128.024 128.023 0 0.082 0 0.178 0 0.275 0 70.43-56.994 127.548-127.376 127.75z" />
<glyph unicode="&#xe91b;" glyph-name="referrals" d="M874.981 223.704c-140.665 23.795-126.787 57.775-126.787 81.57v44.194c42.552 41.308 68.958 99.045 68.958 162.949 0 2.46-0.039 4.91-0.117 7.351l0.009 115.194c0 122.368-90.543 169.944-172.328 169.944s-172.328-47.576-172.328-169.944v-115.55c-0.027-1.348-0.043-2.937-0.043-4.53 0-65.962 26.797-125.664 70.099-168.815l0.007-40.792c0-23.795 12.665-57.775-128-81.57-126.114-23.795-148.884-98.573-148.884-132.554h758.299c0 33.981-22.636 108.76-148.884 132.554zM389.389 737.967h-346.004c-0.445 0.017-0.967 0.027-1.492 0.027-23.068 0-41.768-18.7-41.768-41.768 0-0.313 0.003-0.624 0.010-0.935 1.037-23.287 19.86-41.898 43.184-42.596l346.070-0.002c23.39 0.7 42.213 19.311 43.247 42.549 0.009 0.36 0.013 0.671 0.013 0.984 0 23.068-18.7 41.768-41.768 41.768-0.525 0-1.047-0.010-1.567-0.029zM302.888 396.84h-86.501c-0.445 0.017-0.967 0.027-1.492 0.027-23.068 0-41.768-18.7-41.768-41.768 0-0.317 0.004-0.634 0.011-0.949 0.977-23.312 19.835-41.958 43.189-42.596l86.562-0.001c23.39 0.7 42.213 19.311 43.247 42.549 0.009 0.352 0.012 0.654 0.012 0.957 0 23.068-18.7 41.768-41.768 41.768-0.524 0-1.046-0.010-1.566-0.029zM346.139 567.404h-216.253c-0.445 0.017-0.967 0.027-1.492 0.027-23.068 0-41.768-18.7-41.768-41.768 0-0.317 0.004-0.634 0.011-0.949 0.977-23.312 19.835-41.958 43.189-42.596l216.313-0.001c23.39 0.7 42.213 19.311 43.247 42.549 0.010 0.364 0.013 0.68 0.013 0.998 0 23.068-18.7 41.768-41.768 41.768-0.525 0-1.047-0.010-1.567-0.029z" />
<glyph unicode="&#xe91c;" glyph-name="Reply" d="M519.805 496.924l102.4-177.493 59.164 34.133-0.25 0.41c20.052 11.284 35.924 27.939 45.946 48.024l197.22 432.8c4.549 7.651 7.237 16.87 7.237 26.716 0 29.232-23.697 52.929-52.929 52.929-0.096 0-0.192 0-0.289-0.001l-472.732 45.511c-2.29 0.167-4.962 0.262-7.655 0.262-21.268 0-41.15-5.937-58.079-16.243l0.198 0.78-59.164-34.133 102.4-177.493s-499.166-229.080-166.389-805.547c0 0.455-109.659 331.207 302.922 569.344z" />
<glyph unicode="&#xe91d;" glyph-name="report" d="M546.088 908.8c0.294 0.001 0.588 0.002 0.883 0.002 93.889 0 170.001-76.112 170.001-170.001 0-0.235 0-0.469-0.001-0.668v-81.92h-68.608l-0.001 81.859c0.005 0.403 0.007 0.806 0.007 1.21 0 55.922-45.334 101.257-101.257 101.257-0.344 0-0.688-0.002-0.979-0.005h-68.224c-0.277 0.002-0.553 0.003-0.831 0.003-56.12 0-101.615-45.495-101.615-101.615 0-0.277 0.001-0.554 0.003-0.788v-68.267h341.504v-682.667h-409.6v750.882c-0.002 0.336-0.003 0.672-0.003 1.009 0 93.729 75.982 169.711 169.711 169.711 0.277 0 0.554-0.001 0.788-0.002h68.267zM955.744 669.867c37.645-0.116 68.14-30.611 68.256-68.267v-546.144c-0.116-37.645-30.611-68.14-68.267-68.256h-170.496v682.667h170.496zM0 601.615c0.155 37.721 30.782 68.252 68.539 68.252 0.024 0 0.048 0 0.069 0h170.496v-682.667h-170.492c-0.024 0-0.048 0-0.073 0-37.757 0-68.384 30.531-68.539 68.267v546.133z" />
<glyph unicode="&#xe91e;" glyph-name="resources" d="M0 686.933h1024v204.8h-1024v-204.8zM68.591 4.267h887.467v614.4h-887.467v-614.4zM307.115 516.267h409.805c18.575-0.672 33.461-15.559 34.132-34.071 0.011-0.352 0.016-0.691 0.016-1.033 0-18.323-14.854-33.178-33.178-33.178-0.341 0-0.681 0.005-1.020 0.015l-409.772-0.001c-0.289-0.009-0.629-0.014-0.97-0.014-18.323 0-33.178 14.854-33.178 33.178 0 0.341 0.005 0.681 0.015 1.020 0.671 18.525 15.557 33.412 34.070 34.082z" />
<glyph unicode="&#xe91f;" glyph-name="search" horiz-adv-x="1015" d="M434.139 813.714c160.338-1.722 289.654-132.101 289.654-292.684 0-63.263-20.070-121.838-54.191-169.706l-27.92-39.773-40.411-28.855c-46.233-33.827-104.222-54.126-166.951-54.126-0.063 0-0.127 0-0.19 0-161.573 0-292.561 130.989-292.561 292.571s130.989 292.571 292.571 292.571zM434.139 960c-242.374 0-438.857-196.483-438.857-438.857s196.483-438.857 438.857-438.857c94.297 0.009 181.486 30.436 252.29 82.004l202.841-206.968c12.972-13.165 30.996-21.321 50.926-21.321s37.954 8.156 50.917 21.312l1.106 1.069c13.972 12.807 22.699 31.14 22.699 51.511s-8.727 38.704-22.647 51.464l-204.12 206.127c50.324 70.496 80.462 158.415 80.462 253.374 0 240.895-193.955 436.49-434.222 439.141z" />
<glyph unicode="&#xe920;" glyph-name="settings" horiz-adv-x="960" d="M480.272-64c-35.066 0.018-69.273 3.653-102.281 10.551-14.471 3.178-28.658 15.481-34.973 31.717-16.82 43.793-33.42 79.526-52.043 114.006-6.831-0.162-16.015 5.246-24.927 10.974-42.485-1.275-82.898-5.138-122.49-11.461 3.034 0.33 0.323 0.113-2.438 0.113-15.625 0-29.628 6.94-39.096 17.906-42.7 49.104-76.459 107.17-98.020 170.86-2.807 8.668-3.815 14.5-3.815 20.568 0 12.552 4.316 24.097 11.545 33.23 22.545 28.29 44.888 60.155 65.271 93.354q1.78 20.31 2.388 36.454c-22.773 37.406-45.101 69.282-69.221 99.671-5.616 7.030-9.931 18.572-9.931 31.122 0 6.064 1.007 11.893 2.864 17.328 22.506 66.92 56.265 124.987 99.443 174.646 9.001 10.393 23.001 17.321 38.62 17.321 2.773 0 5.496-0.218 8.151-0.639 33.938-5.605 74.341-9.469 115.41-10.682q14.76 8.576 28.872 16.112c16.058 29.308 32.632 65.016 47.024 101.818 8.706 23.23 22.922 35.562 40.33 39.242 30.114 6.381 64.321 10.001 99.374 10.001s69.26-3.619 102.268-10.505c14.467-3.195 28.636-15.518 34.915-31.766 16.833-43.795 33.438-79.522 52.063-113.998q11.546-2.358 24.938-10.982c42.445 1.246 82.854 5.11 122.433 11.459-2.948-0.31-0.185-0.084 2.63-0.084 15.598 0 29.573-6.954 38.992-17.93 42.684-49.109 76.431-107.174 97.989-170.86 2.802-8.663 3.808-14.487 3.808-20.546 0-12.557-4.319-24.104-11.552-33.239-22.497-28.29-44.825-60.176-65.205-93.386-1.989-14.95-1.989-25.718-2.405-36.454 22.792-37.421 45.119-69.302 69.232-99.703 5.61-7.011 9.927-18.554 9.927-31.105 0-6.053-1.004-11.871-2.855-17.298-22.49-66.921-56.24-124.988-99.411-174.647-8.977-10.415-22.972-17.362-38.589-17.362-2.79 0-5.529 0.222-8.199 0.649-33.906 5.574-74.313 9.437-115.38 10.679q-14.822-8.606-28.902-16.094c-16.055-29.297-32.66-65.029-47.097-101.849-8.699-23.265-22.882-35.595-40.258-39.29-29.965-6.318-64.002-9.901-98.877-9.901-0.183 0-0.366 0-0.549 0zM428.736 45.28c15.481-2.18 33.363-3.425 51.536-3.425s36.056 1.245 53.567 3.654c16.108 43.314 33.531 78.76 52.772 113.048 2.525 4.12 10.473 11.662 20.072 16.347 16.688 8.072 30.639 16.401 43.794 25.775 7.339 5.291 17.632 8.829 28.751 8.829 0.227 0 0.453-0.001 0.679-0.004 42.072-0.519 82.93-3.457 123.069-8.684 14.692 26.744 31.976 56.628 45.271 88.587-20.422 31.12-42.164 63.674-62.111 97.415-7.314 12.726-10.024 22.046-10.024 31.998 0 1.53 0.064 3.046 0.19 4.544 0.636 7.294 1.006 16.010 1.006 24.812s-0.37 17.518-1.096 26.133c-0.036 0.177-0.1 1.692-0.1 3.223 0 9.953 2.71 19.272 7.433 27.261 22.55 38.486 44.292 71.039 67.693 102.277-16.287 31.828-33.57 61.706-54.22 88.887-34.206-5.673-75.078-8.605-116.535-9.103-0.828-0.008-1.045-0.010-1.264-0.010-11.119 0-21.41 3.544-29.805 9.565-12.087 8.636-26.038 16.959-40.66 24.123-11.661 5.616-19.606 13.154-24.81 22.436-16.578 29.109-34.011 64.548-49.499 101.014-18.142 9.239-36.017 10.474-54.181 10.474s-36.039-1.235-53.546-3.627c-16.117-43.321-33.545-78.766-52.789-113.055-2.53-4.102-10.469-11.64-20.052-16.341-16.68-8.056-30.627-16.374-43.775-25.742-7.202-5.314-17.369-8.87-28.366-8.87-0.363 0-0.725 0.004-1.086 0.012-42.045 0.501-82.916 3.434-123.065 8.666-14.702-26.741-31.989-56.618-45.3-88.566 20.445-31.145 42.198-63.709 62.148-97.465 7.296-12.708 10-22.021 10-31.966 0-1.531-0.064-3.048-0.19-4.547-0.635-7.293-1.004-16.010-1.004-24.812s0.369-17.519 1.094-26.134c0.037-0.18 0.101-1.7 0.101-3.235 0-9.947-2.704-19.261-7.418-27.249-22.546-38.472-44.298-71.025-67.715-102.259 16.305-31.851 33.592-61.732 54.232-88.929 34.182 5.679 75.046 8.617 116.494 9.128 12.007-0.276 22.482-3.772 31.277-9.6 12.034-8.643 25.982-16.962 40.614-24.096 11.626-5.595 19.566-13.134 24.763-22.417 16.541-29.11 33.939-64.567 49.39-101.050zM480.272 249.264c-0.976-0.017-2.127-0.027-3.28-0.027-109.865 0-198.928 89.063-198.928 198.928s89.063 198.928 198.928 198.928c109.865 0 198.928-89.063 198.928-198.928 0-0.002 0-0.003 0-0.005 0.003-0.426 0.005-0.929 0.005-1.433 0-108.434-87.37-196.462-195.552-197.526zM480.272 541.2c-0.457 0.008-0.996 0.013-1.536 0.013-51.385 0-93.040-41.655-93.040-93.040s41.655-93.040 93.040-93.040c51.38 0 93.033 41.648 93.040 93.027 0.001 0.178 0.002 0.387 0.002 0.597 0 50.714-40.863 91.883-91.459 92.379z" />
<glyph unicode="&#xe921;" glyph-name="Shape-24" d="M341.333-64l128 384h-384l597.333 640-128-384h384z" />
<glyph unicode="&#xe922;" glyph-name="tag" horiz-adv-x="1018" d="M469.744 832l373.008-376.32c5.749-5.803 9.301-13.791 9.301-22.608s-3.552-16.805-9.303-22.611l-296.654-298.109c-5.746-5.782-13.703-9.361-22.496-9.361s-16.75 3.579-22.494 9.359l-373.794 375.65v312c0 0.033 0 0.073 0 0.112 0 17.583 14.231 31.842 31.804 31.888h310.628zM495.44 960h-430.080c-36.094-0.109-65.312-29.394-65.312-65.504 0-0.068 0-0.135 0-0.203v-432.118c0-0.001 0-0.003 0-0.005 0-18.146 7.335-34.578 19.202-46.494l458.158-460.478c11.783-11.879 28.113-19.234 46.16-19.234s34.377 7.354 46.156 19.229l429.172 431.3c11.788 11.914 19.070 28.307 19.070 46.4s-7.282 34.485-19.076 46.406l-457.274 461.338c-11.776 11.921-28.108 19.317-46.168 19.36zM445.424 608c-0.318-52.469-42.925-94.88-95.438-94.88-52.71 0-95.44 42.73-95.44 95.44s42.729 95.439 95.438 95.44c52.744-0.154 95.441-42.947 95.441-95.712 0-0.101 0-0.203 0-0.304z" />
<glyph unicode="&#xe923;" glyph-name="tag-copy" horiz-adv-x="1023" d="M498.347 959.761h-432.469c-36.203-0.039-65.536-29.396-65.536-65.604 0-0.024 0-0.048 0-0.072v-431.919c0-0.045 0-0.099 0-0.153 0-18.071 7.302-34.436 19.117-46.305l460.456-460.251c11.896-11.853 28.299-19.19 46.416-19.217 0.107-0.001 0.227-0.001 0.347-0.001 18.019 0 34.322 7.349 46.075 19.213l431.45 431.075c11.865 11.881 19.202 28.286 19.202 46.404s-7.337 34.523-19.203 46.405l-459.434 461.141c-11.872 11.902-28.285 19.27-46.418 19.285zM511.659 597.265c-0.058-82.336-66.818-149.060-149.163-149.060-82.38 0-149.163 66.782-149.163 149.163s66.782 149.163 149.163 149.163c0.030 0 0.066 0 0.103 0 82.324 0 149.060-66.737 149.060-149.060 0-0.072 0-0.144 0-0.216z" />
<glyph unicode="&#xe924;" glyph-name="transactions" d="M64 960c-35.346 0-64-28.654-64-64v-320c0-35.346 28.654-64 64-64h320c35.346 0 64 28.654 64 64v320c0 35.346-28.654 64-64 64h-320zM640 960c-35.346 0-64-28.654-64-64v-320c0-35.346 28.654-64 64-64h320c35.346 0 64 28.654 64 64v320c0 35.346-28.654 64-64 64h-320zM64 384c-35.346 0-64-28.654-64-64v-320c0-35.346 28.654-64 64-64h320c35.346 0 64 28.654 64 64v320c0 35.346-28.654 64-64 64h-320zM640 384c-35.346 0-64-28.654-64-64v-320c0-35.346 28.654-64 64-64h320c35.346 0 64 28.654 64 64v320c0 35.346-28.654 64-64 64h-320zM128 832h192v-192h-192v192zM704 832h192v-192h-192v192zM128 256h192v-192h-192v192zM704 256h192v-192h-192v192z" />
<glyph unicode="&#xe925;" glyph-name="users" d="M870.4 576h-8.96c21.606 36.739 34.368 80.927 34.368 128.096 0 141.332-114.572 255.904-255.904 255.904s-255.904-114.572-255.904-255.904c0-0.034 0-0.068 0-0.102-0.103 0.006-0.226 0.006-0.348 0.006-141.19 0-255.648-114.458-255.648-255.648 0-47.278 12.834-91.559 35.208-129.548l-9.611 1.196c-91.2-40.832-153.6-128.32-153.6-221.632v-98.368c0-22.4 35.52-64 62.080-64h649.92c26.56 0 56 41.6 56 64v98.368c-0.317 34.102-8.312 66.263-22.336 94.936l222.336-1.304c26.56 0 56 41.6 56 64v98.368c0 93.312-62.4 180.8-153.6 221.632zM640 832c0.551 0.009 1.2 0.013 1.851 0.013 70.692 0 128-57.308 128-128s-57.308-128-128-128c-14.456 0-28.352 2.396-41.313 6.813-20.31 33.608-48.114 61.422-80.911 82.019-5.215 12.601-7.61 26.403-7.61 40.764 0 69.809 56.591 126.4 126.4 126.4 0.556 0 1.112-0.004 1.666-0.011zM384 576c0.117 0 0.255 0.001 0.393 0.001 70.692 0 128-57.308 128-128s-57.308-128-128-128c-63.038 0-115.433 45.57-126.040 105.564-1.526 7.278-2.341 14.758-2.353 22.426 0 70.701 57.308 128.009 128 128.009zM640 64h-512v34.368c2.907 39.795 24.969 73.874 56.914 93.335l397.646 0.297c32.471-19.758 54.533-53.837 57.417-93.243l0.023-34.757zM896 320h-290.56c21.722 36.615 34.56 80.714 34.56 127.811 0 0.067 0 0.133 0 0.2l198.56-0.011c32.471-19.758 54.533-53.837 57.417-93.243l0.023-34.757z" />
<glyph unicode="&#xe926;" glyph-name="workflow" d="M737.12 604.88c68.823 18.904 118.551 80.914 118.551 154.538 0 88.366-71.634 160-160 160s-160-71.634-160-160c0-14.724 1.989-28.984 5.713-42.525 18.283-67.771 80.194-117.646 153.754-117.646 14.937 0 29.394 2.057 43.103 5.902zM820 295.776c-47.527-13.731-85.489-46.93-105.337-90.171l-3.303-1.781-388.16 81.488-3.040-0.832c0.023 0.96 0.037 2.091 0.037 3.224 0 13.665-1.942 26.876-5.564 39.373-18.643 67.847-80.662 117.594-154.301 117.594-88.366 0-160-71.634-160-160s71.634-160 160-160c14.734 0 29.003 1.992 42.552 5.72 47.146 12.258 85.682 45.959 104.568 90.074l3.109 1.774 388-81.6 3.040 0.832c0-0.104 0-0.228 0-0.352 0-14.66 1.927-28.871 5.541-42.392 18.615-67.723 80.645-117.492 154.301-117.492 88.366 0 160 71.634 160 160s-71.634 160-160 160c-14.738 0-29.011-1.993-42.564-5.724zM597.12 630.304l-42.72 48.176-295.2-264.576 42.4-48.272z" />
</font>
</defs>
</svg>
